<?xml version="1.0" encoding="UTF-8" standalone="no"?>
<!-- Created with Inkscape (http://www.inkscape.org/) -->

<svg
   xmlns:dc="http://purl.org/dc/elements/1.1/"
   xmlns:cc="http://creativecommons.org/ns#"
   xmlns:rdf="http://www.w3.org/1999/02/22-rdf-syntax-ns#"
   xmlns:svg="http://www.w3.org/2000/svg"
   xmlns="http://www.w3.org/2000/svg"
   xmlns:sodipodi="http://sodipodi.sourceforge.net/DTD/sodipodi-0.dtd"
   xmlns:inkscape="http://www.inkscape.org/namespaces/inkscape"
   width="210mm"
   height="297mm"
   viewBox="0 0 210 297"
   version="1.1"
   id="svg8"
   inkscape:version="0.92.2 (5c3e80d, 2017-08-06)"
   sodipodi:docname="flow2sys_calc.svg">
  <defs
     id="defs2" />
  <sodipodi:namedview
     id="base"
     pagecolor="#ffffff"
     bordercolor="#666666"
     borderopacity="1.0"
     inkscape:pageopacity="0.0"
     inkscape:pageshadow="2"
     inkscape:zoom="0.98994949"
     inkscape:cx="225.04409"
     inkscape:cy="748.70515"
     inkscape:document-units="mm"
     inkscape:current-layer="layer1"
     showgrid="true"
     inkscape:snap-object-midpoints="true"
     inkscape:snap-center="true"
     inkscape:window-width="1036"
     inkscape:window-height="619"
     inkscape:window-x="223"
     inkscape:window-y="172"
     inkscape:window-maximized="1">
    <inkscape:grid
       type="xygrid"
       id="grid4747" />
  </sodipodi:namedview>
  <metadata
     id="metadata5">
    <rdf:RDF>
      <cc:Work
         rdf:about="">
        <dc:format>image/svg+xml</dc:format>
        <dc:type
           rdf:resource="http://purl.org/dc/dcmitype/StillImage" />
        <dc:title />
      </cc:Work>
    </rdf:RDF>
  </metadata>
  <g
     inkscape:label="Layer 1"
     inkscape:groupmode="layer"
     id="layer1">
    <path
       style="opacity:0.56800022;fill:none;fill-opacity:1;stroke:#d4d8ef;stroke-width:0.5;stroke-miterlimit:4;stroke-dasharray:none;stroke-dashoffset:0;stroke-opacity:1"
       id="path4749"
       sodipodi:type="arc"
       sodipodi:cx="79.375"
       sodipodi:cy="111.79166"
       sodipodi:rx="47.625"
       sodipodi:ry="47.625"
       sodipodi:start="3.9123824"
       sodipodi:end="3.9122777"
       sodipodi:open="true"
       d="m 45.210698,78.611224 a 47.625,47.625 0 0 1 67.343842,-0.984738 47.625,47.625 0 0 1 0.9865,67.343814 47.625,47.625 0 0 1 -67.343789,0.98826 47.625,47.625 0 0 1 -0.990027,-67.343759" />
    <path
       style="fill:none;stroke:#000000;stroke-width:0.26458332px;stroke-linecap:butt;stroke-linejoin:miter;stroke-opacity:1"
       d="M 26.458333,111.79167 H 132.29166"
       id="path4751"
       inkscape:connector-curvature="0" />
    <path
       style="fill:none;stroke:#000000;stroke-width:0.26458332px;stroke-linecap:butt;stroke-linejoin:miter;stroke-opacity:1"
       d="M 79.374999,58.875001 V 164.70833"
       id="path4753"
       inkscape:connector-curvature="0" />
    <path
       style="opacity:0.56800022;fill:none;fill-opacity:1;stroke:#d4d8ef;stroke-width:0.5;stroke-miterlimit:4;stroke-dasharray:none;stroke-dashoffset:0;stroke-opacity:1"
       id="path4755"
       sodipodi:type="arc"
       sodipodi:cx="55.5625"
       sodipodi:cy="111.79166"
       sodipodi:rx="23.8125"
       sodipodi:ry="23.8125"
       sodipodi:start="3.9123824"
       sodipodi:end="3.9122777"
       sodipodi:open="true"
       d="m 38.480349,95.201448 a 23.8125,23.8125 0 0 1 33.67192,-0.492369 23.8125,23.8125 0 0 1 0.493251,33.671911 23.8125,23.8125 0 0 1 -33.671895,0.49413 23.8125,23.8125 0 0 1 -0.495013,-33.671883" />
    <path
       style="opacity:0.56800022;fill:none;fill-opacity:1;stroke:#d4d8ef;stroke-width:0.5;stroke-miterlimit:4;stroke-dasharray:none;stroke-dashoffset:0;stroke-opacity:1"
       id="path4755-1"
       sodipodi:type="arc"
       sodipodi:cx="103.1875"
       sodipodi:cy="111.79166"
       sodipodi:rx="23.8125"
       sodipodi:ry="23.8125"
       sodipodi:start="3.9123824"
       sodipodi:end="3.9122777"
       sodipodi:open="true"
       d="m 86.105349,95.20144 a 23.8125,23.8125 0 0 1 33.671921,-0.492369 23.8125,23.8125 0 0 1 0.49325,33.671909 23.8125,23.8125 0 0 1 -33.671895,0.49413 23.8125,23.8125 0 0 1 -0.495013,-33.671881" />
    <path
       style="opacity:0.56800022;fill:none;fill-opacity:1;stroke:#d4d8ef;stroke-width:0.5;stroke-miterlimit:4;stroke-dasharray:none;stroke-dashoffset:0;stroke-opacity:1"
       id="path4755-4"
       sodipodi:type="arc"
       sodipodi:cx="79.375"
       sodipodi:cy="111.79166"
       sodipodi:rx="23.8125"
       sodipodi:ry="23.8125"
       sodipodi:start="3.9123824"
       sodipodi:end="3.9122777"
       sodipodi:open="true"
       d="m 62.292849,95.20144 a 23.8125,23.8125 0 0 1 33.67192,-0.492369 23.8125,23.8125 0 0 1 0.493251,33.671909 23.8125,23.8125 0 0 1 -33.671895,0.49413 23.8125,23.8125 0 0 1 -0.495013,-33.671881" />
    <path
       style="fill:none;stroke:#ff0000;stroke-width:0.26458332px;stroke-linecap:butt;stroke-linejoin:miter;stroke-opacity:1"
       d="M 55.562499,111.79167 67.468749,90.625"
       id="path8443"
       inkscape:connector-curvature="0" />
    <path
       style="fill:none;stroke:#fe0000;stroke-width:0.26458332px;stroke-linecap:butt;stroke-linejoin:miter;stroke-opacity:1"
       d="M 79.374999,111.79167 67.468749,90.625"
       id="path8445"
       inkscape:connector-curvature="0" />
    <path
       style="fill:none;stroke:#ff0000;stroke-width:0.26458332px;stroke-linecap:butt;stroke-linejoin:miter;stroke-opacity:1"
       d="M 103.1875,111.79167 67.468749,90.625"
       id="path8447"
       inkscape:connector-curvature="0" />
  </g>
</svg>
